<?xml version="1.0" standalone="no"?>
<!DOCTYPE svg PUBLIC "-//W3C//DTD SVG 20010904//EN"
 "http://www.w3.org/TR/2001/REC-SVG-20010904/DTD/svg10.dtd">
<svg version="1.0" xmlns="http://www.w3.org/2000/svg"
 width="2520.000000pt" height="1920.000000pt" viewBox="0 0 2520.000000 1920.000000"
 preserveAspectRatio="xMidYMid meet">

<g transform="translate(0.000000,1920.000000) scale(0.100000,-0.100000)"
fill="#000000" stroke="none">
<path d="M16736 19183 c-3 -10 -55 -205 -116 -433 -61 -228 -113 -423 -116
-432 -5 -17 21 -18 444 -18 l448 0 97 363 c53 199 108 401 121 450 l24 87
-448 0 c-419 0 -449 -1 -454 -17z"/>
<path d="M15206 18283 c-18 -62 -336 -1256 -336 -1264 0 -5 252 -9 640 -9
l639 0 10 38 c6 20 80 298 165 617 85 319 158 592 162 608 l6 27 -640 0 c-601
0 -641 -1 -646 -17z"/>
<path d="M12120 17006 c0 -5 -226 -849 -235 -877 -6 -19 2 -19 444 -19 248 0
451 3 451 6 0 6 228 860 235 882 3 9 -90 12 -445 12 -248 0 -450 -2 -450 -4z"/>
<path d="M12766 16048 c-25 -88 -326 -1216 -326 -1222 0 -3 288 -6 640 -6
l639 0 15 53 c29 101 326 1215 326 1221 0 3 -288 6 -639 6 l-640 0 -15 -52z"/>
<path d="M15805 15708 c-7 -22 -235 -876 -235 -882 0 -4 201 -5 447 -4 l448 3
117 435 c64 239 117 441 118 448 0 9 -95 12 -445 12 -348 0 -447 -3 -450 -12z"/>
<path d="M13480 13902 l-246 -917 915 -3 c503 -1 916 0 918 2 3 3 493 1825
493 1833 0 2 -413 3 -917 3 l-918 0 -245 -918z"/>
<path d="M9657 14253 c-7 -12 -337 -1248 -337 -1262 0 -8 166 -11 640 -11 352
0 640 2 640 5 0 6 325 1222 336 1258 5 16 -30 17 -635 17 -352 0 -642 -3 -644
-7z"/>
<path d="M10596 12953 c-9 -30 -696 -2594 -696 -2598 0 -3 590 -4 1312 -3
l1312 3 348 1295 c191 712 347 1301 348 1308 0 9 -268 12 -1309 12 -1239 0
-1310 -1 -1315 -17z"/>
<path d="M7812 9437 c-133 -497 -242 -909 -242 -915 0 -9 226 -12 915 -12
l914 0 12 43 c6 23 114 426 240 895 125 470 231 862 234 873 6 19 -11 19 -912
19 l-919 0 -242 -903z"/>
</g>
</svg>
