<?xml version="1.0" standalone="no"?>
<!DOCTYPE svg PUBLIC "-//W3C//DTD SVG 20010904//EN"
 "http://www.w3.org/TR/2001/REC-SVG-20010904/DTD/svg10.dtd">
<svg version="1.0" xmlns="http://www.w3.org/2000/svg"
 width="2664.000000pt" height="703.000000pt" viewBox="0 0 2664.000000 703.000000"
 preserveAspectRatio="xMidYMid meet">

<g transform="translate(0.000000,703.000000) scale(0.100000,-0.100000)"
fill="#ed2690" stroke="none">
<path d="M6040 7028 c0 -2 -35 -135 -79 -296 l-78 -292 295 2 295 3 72 270
c39 149 75 280 79 293 l7 22 -295 0 c-163 0 -296 -1 -296 -2z"/>
<path d="M5030 6425 c0 -3 -49 -190 -110 -415 -60 -224 -110 -411 -110 -414 0
-3 189 -6 419 -6 391 0 420 1 425 18 15 49 216 804 216 813 0 5 -163 9 -420 9
-231 0 -420 -2 -420 -5z"/>
<path d="M3000 5584 c0 -3 -34 -131 -75 -284 -41 -153 -75 -283 -75 -289 0 -8
84 -11 292 -9 l292 3 72 270 c40 149 76 280 79 293 l5 22 -295 0 c-162 0 -295
-3 -295 -6z"/>
<path d="M3326 4583 c-60 -225 -111 -414 -113 -421 -4 -10 81 -12 418 -10
l423 3 83 310 c46 171 96 358 112 418 l29 107 -422 0 -421 0 -109 -407z"/>
<path d="M5425 4728 c-3 -7 -36 -132 -75 -278 -39 -146 -73 -273 -76 -282 -5
-17 13 -18 290 -18 163 0 296 3 296 6 0 3 34 131 75 284 41 153 75 283 75 289
0 17 -579 15 -585 -1z"/>
<path d="M3897 3547 c-87 -325 -158 -595 -157 -599 0 -5 270 -8 599 -8 l600 0
15 53 c8 28 78 291 156 582 78 292 143 538 146 548 5 16 -28 17 -598 17 l-603
0 -158 -593z"/>
<path d="M1371 3743 c-144 -538 -211 -789 -211 -795 0 -4 189 -8 420 -8 231 0
420 2 420 4 0 2 47 178 104 392 58 214 108 401 111 417 l7 27 -421 0 -420 0
-10 -37z"/>
<path d="M1991 2893 c-74 -278 -443 -1653 -447 -1665 -5 -17 40 -18 858 -18
l863 0 228 853 c125 468 228 855 227 860 0 4 -387 7 -860 7 l-859 0 -10 -37z"/>
<path d="M167 607 c-87 -325 -158 -595 -157 -599 0 -5 270 -8 600 -8 l599 0
15 53 c21 73 306 1139 306 1143 0 2 -271 4 -602 4 l-603 0 -158 -593z"/>
</g>
</svg>
